<?xml version="1.0" standalone="no"?>
<!DOCTYPE svg PUBLIC "-//W3C//DTD SVG 20010904//EN"
 "http://www.w3.org/TR/2001/REC-SVG-20010904/DTD/svg10.dtd">
<svg version="1.0" xmlns="http://www.w3.org/2000/svg"
 width="325.000000pt" height="325.000000pt" viewBox="0 0 325.000000 325.000000"
 preserveAspectRatio="xMidYMid meet">
<metadata>
Created by potrace 1.14, written by Peter Selinger 2001-2017
</metadata>
<g transform="translate(0.000000,325.000000) scale(0.100000,-0.100000)"
fill="#000000" stroke="none">
<path d="M1035 3244 c-135 -16 -234 -58 -363 -156 -125 -93 -386 -344 -439
-422 -166 -242 -161 -650 14 -1076 166 -405 475 -826 813 -1109 384 -321 734
-477 1070 -475 151 0 218 16 345 82 96 51 231 168 432 374 168 174 222 313
224 576 3 356 -154 771 -449 1186 -457 642 -1158 1076 -1647 1020z m160 -54
c170 -19 294 -55 464 -137 490 -235 959 -722 1222 -1268 76 -158 107 -242 144
-382 99 -381 56 -684 -120 -858 -73 -73 -138 -109 -241 -135 -86 -22 -218 -26
-324 -10 -228 36 -557 198 -810 400 -318 254 -608 613 -785 975 -84 171 -131
301 -171 471 -25 105 -28 139 -29 289 0 188 11 250 65 361 83 169 224 268 422
293 34 5 65 9 68 10 3 0 46 -4 95 -9z m-671 -337 c-41 -96 -61 -373 -36 -494
l9 -47 -53 -42 c-64 -51 -164 -154 -164 -170 0 -42 71 -2 182 103 l47 44 7
-30 c6 -27 2 -34 -35 -64 -27 -23 -41 -43 -41 -59 0 -31 18 -31 63 0 l35 24
10 -26 c5 -15 20 -56 32 -92 30 -86 117 -274 175 -379 154 -279 435 -615 695
-833 204 -171 458 -320 670 -392 108 -36 252 -66 322 -66 l38 0 -16 -25 c-16
-24 -14 -55 4 -55 5 0 31 19 58 42 l49 42 -47 -51 c-49 -53 -60 -83 -32 -83
23 0 94 52 141 103 23 25 52 48 65 52 14 4 -14 -28 -70 -80 -68 -64 -117 -100
-180 -132 -73 -38 -208 -83 -246 -83 -6 0 24 33 67 73 77 73 90 93 62 103 -20
8 -69 -24 -161 -106 -52 -47 -86 -70 -103 -70 -23 0 -22 2 18 36 29 25 41 43
39 58 -5 36 -31 29 -99 -28 -67 -56 -95 -64 -59 -18 45 56 7 71 -55 22 -21
-16 -46 -30 -56 -30 -11 0 -70 19 -132 41 -184 68 -426 214 -616 374 -209 176
-468 476 -618 718 -53 87 -174 327 -188 373 -5 18 8 32 77 86 52 40 84 72 86
86 6 39 -39 26 -118 -33 -40 -30 -75 -54 -77 -52 -1 2 -16 46 -32 99 -33 106
-71 315 -71 388 0 44 3 50 45 84 45 37 58 72 31 82 -8 3 -26 -2 -40 -11 -40
-26 -34 5 7 35 70 52 117 103 117 126 0 34 -24 30 -82 -13 -48 -34 -50 -35
-43 -12 4 13 23 58 42 99 30 65 52 92 160 198 68 67 126 122 128 122 2 0 -3
-16 -11 -37z"/>
<path d="M1030 3054 c-106 -21 -178 -75 -252 -188 -45 -69 -54 -98 -73 -229
-23 -162 10 -369 95 -592 56 -148 76 -185 100 -185 30 0 26 27 -29 173 -59
160 -77 221 -96 329 -35 198 -9 375 73 493 76 108 127 134 264 135 84 0 113
-5 228 -40 73 -22 137 -37 141 -34 17 10 -13 44 -60 69 -102 51 -301 86 -391
69z"/>
<path d="M1610 2856 c0 -8 13 -24 29 -36 45 -31 139 -72 151 -65 28 17 -6 58
-77 94 -49 25 -103 28 -103 7z"/>
<path d="M1882 2733 c-15 -30 -23 -107 -12 -123 9 -13 14 -11 33 13 18 21 26
24 35 15 9 -9 15 -9 23 -1 15 15 7 58 -11 58 -8 0 -17 11 -20 25 -6 30 -35 38
-48 13z"/>
<path d="M1325 2707 c-16 -8 -91 -70 -165 -139 -155 -143 -174 -174 -144 -240
20 -44 115 -137 141 -139 34 -2 68 3 88 13 27 14 85 70 85 82 0 5 -12 22 -27
38 l-26 27 -37 -29 c-21 -17 -45 -30 -53 -30 -19 0 -77 69 -77 91 0 22 234
239 258 239 22 0 82 -60 82 -81 0 -9 -11 -26 -25 -39 -31 -29 -31 -41 -2 -68
32 -30 39 -28 80 17 68 75 63 121 -21 204 -64 64 -105 77 -157 54z"/>
<path d="M828 2628 c-16 -30 -16 -178 1 -245 15 -62 37 -87 46 -51 8 31 0 292
-9 306 -11 18 -24 14 -38 -10z"/>
<path d="M1530 2349 c-31 -12 -206 -184 -226 -221 -8 -15 -14 -45 -14 -67 0
-32 9 -50 46 -95 99 -123 152 -116 292 36 138 148 144 186 48 286 -42 44 -85
73 -108 71 -7 0 -24 -5 -38 -10z m75 -120 c20 -18 35 -40 35 -53 -1 -25 -148
-186 -171 -186 -8 0 -30 15 -48 34 -26 26 -32 40 -28 58 6 21 156 178 171 178
3 0 21 -14 41 -31z"/>
<path d="M2294 2347 c-9 -24 -6 -29 90 -159 97 -132 197 -290 249 -395 59
-116 107 -160 107 -97 0 78 -271 505 -399 628 -34 33 -41 37 -47 23z"/>
<path d="M880 2275 c-17 -21 1 -70 26 -70 23 0 32 48 13 71 -15 18 -23 18 -39
-1z"/>
<path d="M1689 1940 c-85 -94 -155 -174 -156 -178 -1 -4 11 -23 27 -42 l30
-35 52 55 c29 31 85 90 123 133 39 42 76 77 82 77 20 0 83 -61 83 -80 0 -10
-52 -78 -115 -152 -63 -73 -115 -138 -115 -144 0 -5 15 -25 33 -42 l34 -33
123 147 c133 158 155 199 139 257 -12 44 -80 107 -114 107 -23 0 -24 2 -13 20
11 17 8 24 -17 50 -16 16 -32 30 -35 30 -4 0 -76 -77 -161 -170z"/>
<path d="M2191 1839 c-30 -37 -34 -39 -50 -25 -25 22 -34 20 -59 -14 -26 -35
-27 -43 -7 -60 8 -7 15 -15 15 -19 0 -3 -40 -55 -89 -114 -99 -121 -118 -165
-100 -231 6 -21 28 -57 50 -80 l39 -41 30 35 c16 19 30 39 30 43 0 5 -12 24
-26 42 -34 45 -29 57 64 173 l75 93 34 -32 c20 -20 36 -29 41 -23 5 5 18 22
31 38 l22 29 -33 34 -32 33 32 39 c18 22 32 46 32 54 0 12 -50 67 -61 67 -3 0
-20 -18 -38 -41z"/>
<path d="M1005 1640 c-9 -14 54 -132 142 -265 111 -168 251 -326 380 -430 109
-87 146 -106 165 -87 15 15 -4 36 -117 127 -158 128 -260 247 -430 505 -96
147 -124 176 -140 150z"/>
<path d="M2283 1513 c-37 -33 -154 -185 -177 -230 -23 -45 -20 -110 7 -158 28
-49 83 -88 113 -81 21 6 22 4 11 -24 -10 -27 -8 -33 23 -65 27 -28 37 -33 46
-23 18 19 284 398 284 405 0 13 -156 176 -181 189 -45 23 -91 18 -126 -13z
m129 -130 c21 -20 38 -43 38 -51 0 -22 -137 -200 -160 -207 -30 -9 -90 48 -90
86 0 38 129 209 158 209 9 0 33 -17 54 -37z"/>
<path d="M2845 1358 c-3 -7 4 -49 15 -92 14 -55 20 -111 20 -185 0 -213 -60
-348 -201 -457 -60 -46 -72 -70 -43 -81 39 -15 164 86 218 175 98 163 122 418
54 589 -22 56 -52 80 -63 51z"/>
<path d="M2754 1317 c-6 -15 20 -225 29 -233 12 -13 37 6 43 33 9 34 -11 180
-27 199 -14 18 -38 18 -45 1z"/>
<path d="M2757 1013 c-4 -3 -7 -21 -7 -40 0 -26 4 -33 20 -33 24 0 43 34 35
60 -6 19 -35 27 -48 13z"/>
<path d="M1796 874 c-23 -61 -12 -173 14 -134 15 23 34 116 27 134 -8 21 -33
21 -41 0z"/>
<path d="M1870 771 c-14 -28 -13 -84 2 -79 19 7 51 66 44 83 -8 21 -33 19 -46
-4z"/>
<path d="M1910 705 c0 -8 7 -15 15 -15 8 0 15 7 15 15 0 8 -7 15 -15 15 -8 0
-15 -7 -15 -15z"/>
<path d="M2010 651 c0 -37 170 -106 296 -121 96 -11 147 -4 152 23 3 17 7 16
-145 37 -45 6 -118 24 -162 40 -81 30 -141 38 -141 21z"/>
<path d="M431 1922 c-74 -50 -161 -132 -161 -153 0 -28 21 -23 86 20 96 64
145 111 142 134 -5 31 -20 30 -67 -1z"/>
<path d="M425 1659 c-51 -47 -59 -79 -20 -79 30 0 105 64 105 90 0 15 -18 30
-36 30 -2 0 -25 -19 -49 -41z"/>
</g>
</svg>
